<?xml version="1.0" encoding="utf-8"?>
<svg id="master-artboard" viewBox="0 0 527.8421630859375 389.07025146484375" version="1.1" xmlns="http://www.w3.org/2000/svg" x="0px" y="0px" width="527.8421630859375px" height="389.07025146484375px" enable-background="new 0 0 2340 1560"><rect id="ee-background" x="0" y="0" width="527.8421630859375" height="389.07025146484375" style="fill: white; fill-opacity: 0; pointer-events: none;"/><defs><style id="ee-google-fonts">@import url(https://fonts.googleapis.com/css?family=Allerta+Stencil:400);</style><linearGradient id="gradient-0" gradientUnits="userSpaceOnUse" x1="162.9921875" y1="-14" x2="162.9921875" y2="26.5" gradientTransform="matrix(0.2095284167631173, 0.9778012876157407, -1.5555540485146604, 0.3333332862383054, 170.06290531158447, -141.70730289412134)">
                <stop offset="0" style="stop-color: #87287f"/>
                <stop offset="1" style="stop-color: #381135"/>
              </linearGradient><linearGradient id="gradient-1" gradientUnits="userSpaceOnUse" x1="162.9921875" y1="-14" x2="162.9921875" y2="26.5" gradientTransform="matrix(0.4668179749966199, -0.8843518388910323, 7.975306719237711, 4.209875750271244, -38.441166689668606, -225.91925983243334)">
                <stop offset="0" style="stop-color: #2d0423"/>
                <stop offset="1" style="stop-color: #000000"/>
              </linearGradient><linearGradient id="gradient-2" gradientUnits="userSpaceOnUse" x1="162.9921875" y1="-14" x2="162.9921875" y2="26.5">
                <stop offset="0" style="stop-color: #2d0423"/>
                <stop offset="1" style="stop-color: #000000"/>
              </linearGradient><linearGradient id="gradient-3" gradientUnits="userSpaceOnUse" x1="162.9921875" y1="-14" x2="162.9921875" y2="26.5" gradientTransform="matrix(0.020500285911928734, -0.9997888370701024, 7.827159023513946, 0.16049366244771068, 113.23106519474928, 167.2046876148026)">
                <stop offset="0" style="stop-color: #fe2e85"/>
                <stop offset="1" style="stop-color: #c50153"/>
              </linearGradient><linearGradient id="gradient-4" gradientUnits="objectBoundingBox" x1="0.4922769367694855" y1="-0.03152316063642502" x2="0.4922769069671631" y2="0.9684770107269287" gradientTransform="matrix(-0.014236691804106971, -8.04854420751768, 0.9882498465782691, -0.0002795905309052604, 0.021959913784284246, 4.53072413605553)">
                <stop offset="0" style="stop-color: #87287f"/>
                <stop offset="1" style="stop-color: #381135"/>
              </linearGradient></defs>
<metadata><!--?xpacket begin="﻿" id="W5M0MpCehiHzreSzNTczkc9d"?-->
<!--?xpacket end="w"?-->
	</metadata>
<linearGradient id="SVGID_1_" gradientUnits="userSpaceOnUse" x1="1014.4956" y1="648.1743" x2="1388.6473" y2="897.6101">
		<stop offset="0" style="stop-color:#E72A79"/>
		<stop offset="1" style="stop-color:#642880"/>
	</linearGradient><path d="M 994.527993 629.473999 A 8.085 8.085 0 0 1 986.442993 637.558999 A 8.085 8.085 0 0 1 978.357993 629.473999 A 8.085 8.085 0 0 1 986.442993 621.388999 A 8.085 8.085 0 0 1 994.527993 629.473999 Z" fill="url(#SVGID_1_)" transform="matrix(1, 0, 0, 1, -900.3459066152573, -528.4309692382812)"/><linearGradient id="SVGID_2_" gradientUnits="userSpaceOnUse" x1="1032.9038" y1="620.5625" x2="1407.0457" y2="869.9916">
		<stop offset="0" style="stop-color:#E72A79"/>
		<stop offset="1" style="stop-color:#642880"/>
	</linearGradient><path fill="url(#SVGID_2_)" d="M1022.744,604.705c0-7.528-6.103-13.632-13.63-13.632s-13.628,6.104-13.628,13.632&#10;&#9;&#9;c0,7.525,6.101,13.627,13.628,13.627S1022.744,612.23,1022.744,604.705z" transform="matrix(1, 0, 0, 1, -900.3459066152573, -528.4309692382812)"/><linearGradient id="SVGID_3_" gradientUnits="userSpaceOnUse" x1="1037.1597" y1="614.1768" x2="1411.3015" y2="863.6059">
		<stop offset="0" style="stop-color:#E72A79"/>
		<stop offset="1" style="stop-color:#642880"/>
	</linearGradient><path fill="url(#SVGID_3_)" d="M995.07,577.032c0-7.528-6.103-13.632-13.629-13.632c-7.527,0-13.628,6.104-13.628,13.632&#10;&#9;&#9;c0,7.525,6.102,13.626,13.628,13.626C988.967,590.659,995.07,584.557,995.07,577.032z" transform="matrix(1, 0, 0, 1, -900.3459066152573, -528.4309692382812)"/><radialGradient id="SVGID_4_" gradientUnits="objectBoundingBox" cx="0.5" cy="0.5" r="0.5">
		<stop offset="0" style="stop-color:#E72A79"/>
		<stop offset="1" style="stop-color:#642880"/>
	</radialGradient><path fill="url(#SVGID_4_)" d="M1053.704,565.236c0-11.388-9.23-20.621-20.616-20.621c-11.386,0-20.617,9.233-20.617,20.621&#10;&#9;&#9;c0,11.383,9.23,20.613,20.617,20.613C1044.473,585.849,1053.704,576.62,1053.704,565.236z" transform="matrix(1, 0, 0, 1, -900.3459066152573, -528.4309692382812)" style="fill: rgb(231, 42, 121);"/><linearGradient id="SVGID_5_" gradientUnits="userSpaceOnUse" x1="983.3472" y1="694.9004" x2="1357.5028" y2="944.3387">
		<stop offset="0" style="stop-color:#E72A79"/>
		<stop offset="1" style="stop-color:#642880"/>
	</linearGradient><path d="M 953.293983 666.36499 A 12.749 12.749 0 0 1 940.544983 679.11399 A 12.749 12.749 0 0 1 927.795983 666.36499 A 12.749 12.749 0 0 1 940.544983 653.615991 A 12.749 12.749 0 0 1 953.293983 666.36499 Z" fill="url(#SVGID_5_)" transform="matrix(1, 0, 0, 1, -900.3459066152573, -528.4309692382812)"/><linearGradient id="SVGID_6_" gradientUnits="userSpaceOnUse" x1="999.0513" y1="671.3369" x2="1373.1868" y2="920.7618">
		<stop offset="0" style="stop-color:#E72A79"/>
		<stop offset="1" style="stop-color:#642880"/>
	</linearGradient><path d="M 949.949983 632.333008 A 9.405 9.405 0 0 1 940.544983 641.738008 A 9.405 9.405 0 0 1 931.139983 632.333008 A 9.405 9.405 0 0 1 940.544983 622.928008 A 9.405 9.405 0 0 1 949.949983 632.333008 Z" fill="url(#SVGID_6_)" transform="matrix(1, 0, 0, 1, -900.3459066152573, -528.4309692382812)"/><linearGradient id="SVGID_7_" gradientUnits="userSpaceOnUse" x1="1000.9619" y1="668.457" x2="1375.0703" y2="917.8639">
		<stop offset="0" style="stop-color:#E72A79"/>
		<stop offset="1" style="stop-color:#642880"/>
	</linearGradient><path d="M 926.098992 614.177979 A 6.557 6.557 0 0 1 919.541992 620.734979 A 6.557 6.557 0 0 1 912.984992 614.177979 A 6.557 6.557 0 0 1 919.541992 607.620978 A 6.557 6.557 0 0 1 926.098992 614.177979 Z" fill="url(#SVGID_7_)" transform="matrix(1, 0, 0, 1, -900.3459066152573, -528.4309692382812)"/><linearGradient id="SVGID_8_" gradientUnits="userSpaceOnUse" x1="971.832" y1="712.1694" x2="1345.9683" y2="961.5948">
		<stop offset="0" style="stop-color:#E72A79"/>
		<stop offset="1" style="stop-color:#642880"/>
	</linearGradient><path d="M 1006.117023 719.189026 A 23.756001 23.756001 0 0 1 982.361023 742.945026 A 23.756001 23.756001 0 0 1 958.605022 719.189026 A 23.756001 23.756001 0 0 1 982.361023 695.433025 A 23.756001 23.756001 0 0 1 1006.117023 719.189026 Z" fill="url(#SVGID_8_)" transform="matrix(1, 0, 0, 1, -900.3459066152573, -528.4309692382812)"/><linearGradient id="SVGID_9_" gradientUnits="userSpaceOnUse" x1="966.5508" y1="720.0898" x2="1340.694" y2="969.5199">
		<stop offset="0" style="stop-color:#E72A79"/>
		<stop offset="1" style="stop-color:#642880"/>
	</linearGradient><path d="M 1029.676997 753.513 A 12.992 12.992 0 0 1 1016.684998 766.505 A 12.992 12.992 0 0 1 1003.692998 753.513 A 12.992 12.992 0 0 1 1016.684998 740.521001 A 12.992 12.992 0 0 1 1029.676997 753.513 Z" fill="url(#SVGID_9_)" transform="matrix(1, 0, 0, 1, -900.3459066152573, -528.4309692382812)"/><linearGradient id="SVGID_10_" gradientUnits="userSpaceOnUse" x1="996.2134" y1="675.5991" x2="1370.3754" y2="925.0417">
		<stop offset="0" style="stop-color:#E72A79"/>
		<stop offset="1" style="stop-color:#642880"/>
	</linearGradient><path d="M 999.552 666.36499 A 17.190001 17.190001 0 0 1 982.362 683.554991 A 17.190001 17.190001 0 0 1 965.171999 666.36499 A 17.190001 17.190001 0 0 1 982.362 649.17499 A 17.190001 17.190001 0 0 1 999.552 666.36499 Z" fill="url(#SVGID_10_)" transform="matrix(1, 0, 0, 1, -900.3459066152573, -528.4309692382812)"/><linearGradient id="SVGID_11_" gradientUnits="userSpaceOnUse" x1="1035.3071" y1="616.9556" x2="1409.4502" y2="866.3856">
		<stop offset="0" style="stop-color:#E72A79"/>
		<stop offset="1" style="stop-color:#642880"/>
	</linearGradient><path fill="url(#SVGID_11_)" d="M1291.889,552.134c-65.753-55.602-75.003,6.1-129.581,6.1c-48.922,0-61.432-49.56-110.855-19.789&#10;&#9;&#9;c8.525,5.864,14.13,15.684,14.13,26.792c0,17.736-14.288,32.188-31.958,32.477c0.635,2.226,0.998,4.565,0.998,6.992&#10;&#9;&#9;c0,14.063-11.443,25.505-25.508,25.505c-0.925,0-1.837-0.055-2.737-0.152c-0.155,5.311-2.378,10.11-5.912,13.604&#10;&#9;&#9;c6.671,5.332,10.964,13.52,10.964,22.704c0,8.999-4.112,17.053-10.553,22.389c10.257,6.264,17.118,17.563,17.118,30.435&#10;&#9;&#9;c0,3.274-0.452,6.442-1.283,9.455c13.701,0.015,24.843,11.164,24.843,24.869c0,13.714-11.156,24.87-24.87,24.87&#10;&#9;&#9;c-13.704,0-24.853-11.142-24.868-24.842c-3.013,0.831-6.182,1.283-9.456,1.283c-12.465,0-23.447-6.438-29.818-16.158&#10;&#9;&#9;c-0.133,25.595,4.69,48.727,15.541,65.933c38.526,61.087,101.231-68.302,194.225-68.302c92.995,0,155.698,129.389,194.224,68.302&#10;&#9;&#9;C1395.055,743.506,1357.646,607.739,1291.889,552.134z M1125.137,654.883h-19.017v19.014c0,7.76-6.293,14.054-14.056,14.054&#10;&#9;&#9;c-7.762,0-14.054-6.294-14.054-14.054v-19.014h-19.017c-7.763,0-14.056-6.296-14.056-14.059c0-7.763,6.292-14.055,14.056-14.055&#10;&#9;&#9;h19.017v-19.017c0-7.763,6.292-14.054,14.054-14.054c7.763,0,14.056,6.291,14.056,14.054v19.017h19.017&#10;&#9;&#9;c7.763,0,14.053,6.292,14.053,14.055C1139.189,648.587,1132.899,654.883,1125.137,654.883z M1199.483,654.892&#10;&#9;&#9;c-7.766,0-14.059-6.292-14.059-14.055c0-7.763,6.293-14.059,14.059-14.059c7.759,0,14.052,6.296,14.052,14.059&#10;&#9;&#9;C1213.535,648.6,1207.242,654.892,1199.483,654.892z M1232.552,687.951c-7.761,0-14.054-6.294-14.054-14.054&#10;&#9;&#9;c0-7.763,6.293-14.056,14.054-14.056c7.763,0,14.056,6.293,14.056,14.056C1246.607,681.657,1240.314,687.951,1232.552,687.951z&#10;&#9;&#9; M1232.552,621.809c-7.761,0-14.054-6.293-14.054-14.056c0-7.763,6.293-14.054,14.054-14.054c7.763,0,14.056,6.291,14.056,14.054&#10;&#9;&#9;C1246.607,615.516,1240.314,621.809,1232.552,621.809z M1265.622,654.892c-7.762,0-14.052-6.292-14.052-14.055&#10;&#9;&#9;c0-7.763,6.29-14.059,14.052-14.059c7.767,0,14.06,6.296,14.06,14.059C1279.682,648.6,1273.389,654.892,1265.622,654.892z" transform="matrix(1, 0, 0, 1, -900.3459066152573, -528.4309692382812)"/>
<path d="M 1014.8375244140625 1072.7099609375 C 1013.4908447265625 1071.183349609375 1012.0541381835938 1070.0400390625 1010.5275268554688 1069.280029296875 C 1009.0075073242188 1068.5133056640625 1007.3674926757812 1068.0733642578125 1005.6074829101562 1067.9599609375 L 1005.6074829101562 1059.260009765625 C 1012.16748046875 1059.5533447265625 1017.6741943359375 1061.86669921875 1022.1275024414062 1066.199951171875 L 1014.8375244140625 1072.7099609375 M 1005.6074829101562 1116.739990234375 C 1007.3674926757812 1116.56005859375 1009.024169921875 1116.0899658203125 1010.5775146484375 1115.3299560546875 C 1012.1241455078125 1114.5699462890625 1013.544189453125 1113.4566650390625 1014.8375244140625 1111.989990234375 L 1022.1275024414062 1118.4100341796875 C 1019.9008178710938 1120.57666015625 1017.4108276367188 1122.2467041015625 1014.657470703125 1123.4200439453125 C 1011.9041748046875 1124.5933837890625 1008.8875122070312 1125.2667236328125 1005.6074829101562 1125.43994140625 L 1005.6074829101562 1116.739990234375 M 977.1275024414062 1092.300048828125 C 977.1275024414062 1087.086669921875 977.7575073242188 1082.489990234375 979.0175170898438 1078.510009765625 C 980.2775268554688 1074.5233154296875 982.0208129882812 1071.1533203125 984.2474975585938 1068.4000244140625 C 986.4741821289062 1065.646728515625 989.0974731445312 1063.5067138671875 992.1174926757812 1061.97998046875 C 995.1375122070312 1060.4599609375 998.4341430664062 1059.5533447265625 1002.0075073242188 1059.260009765625 L 1002.0075073242188 1068.050048828125 C 1000.0741577148438 1068.3433837890625 998.2575073242188 1069 996.5574951171875 1070.02001953125 C 994.8574829101562 1071.046630859375 993.36083984375 1072.526611328125 992.0675048828125 1074.4599609375 C 990.7808227539062 1076.393310546875 989.7708129882812 1078.8399658203125 989.0374755859375 1081.800048828125 C 988.3041381835938 1084.760009765625 987.9108276367188 1088.260009765625 987.8574829101562 1092.300048828125 C 987.9108276367188 1096.4066162109375 988.3041381835938 1099.92333984375 989.0374755859375 1102.8499755859375 C 989.7708129882812 1105.7833251953125 990.7808227539062 1108.2432861328125 992.0675048828125 1110.22998046875 C 993.36083984375 1112.223388671875 994.870849609375 1113.7467041015625 996.5974731445312 1114.800048828125 C 998.3241577148438 1115.8599853515625 1000.1275024414062 1116.5067138671875 1002.0075073242188 1116.739990234375 L 1002.0075073242188 1125.3499755859375 C 998.4341430664062 1125.11669921875 995.1375122070312 1124.2366943359375 992.1174926757812 1122.7099609375 C 989.0974731445312 1121.18994140625 986.4741821289062 1119.0533447265625 984.2474975585938 1116.300048828125 C 982.0208129882812 1113.546630859375 980.2775268554688 1110.163330078125 979.0175170898438 1106.1500244140625 C 977.7575073242188 1102.13671875 977.1275024414062 1097.52001953125 977.1275024414062 1092.300048828125 ZM 1040.13037109375 1092.300048828125 C 1040.13037109375 1087.086669921875 1040.7603759765625 1082.473388671875 1042.0203857421875 1078.4599609375 C 1043.2803955078125 1074.4466552734375 1045.0369873046875 1071.050048828125 1047.2904052734375 1068.27001953125 C 1049.543701171875 1065.4832763671875 1052.2103271484375 1063.3433837890625 1055.2904052734375 1061.8499755859375 C 1058.3636474609375 1060.356689453125 1061.717041015625 1059.4932861328125 1065.350341796875 1059.260009765625 L 1065.350341796875 1068.050048828125 C 1063.3570556640625 1068.2833251953125 1061.483642578125 1068.896728515625 1059.7303466796875 1069.8900146484375 C 1057.9703369140625 1070.8900146484375 1056.447021484375 1072.356689453125 1055.160400390625 1074.2900390625 C 1053.8670654296875 1076.223388671875 1052.84033203125 1078.683349609375 1052.080322265625 1081.6700439453125 C 1051.3203125 1084.6566162109375 1050.910400390625 1088.199951171875 1050.850341796875 1092.300048828125 C 1050.910400390625 1096.4599609375 1051.3203125 1100.02001953125 1052.080322265625 1102.97998046875 C 1052.84033203125 1105.93994140625 1053.88037109375 1108.4166259765625 1055.2003173828125 1110.4100341796875 C 1056.5203857421875 1112.4033203125 1058.060302734375 1113.913330078125 1059.8203125 1114.93994140625 C 1061.57373046875 1115.9599609375 1063.4169921875 1116.56005859375 1065.350341796875 1116.739990234375 L 1065.350341796875 1125.43994140625 C 1061.7769775390625 1125.2066650390625 1058.43701171875 1124.3433837890625 1055.330322265625 1122.8499755859375 C 1052.2236328125 1121.356689453125 1049.543701171875 1119.2166748046875 1047.2904052734375 1116.4300537109375 C 1045.0369873046875 1113.6500244140625 1043.2803955078125 1110.2366943359375 1042.0203857421875 1106.18994140625 C 1040.7603759765625 1102.1500244140625 1040.13037109375 1097.52001953125 1040.13037109375 1092.300048828125 M 1068.870361328125 1059.260009765625 C 1072.4437255859375 1059.433349609375 1075.7669677734375 1060.2833251953125 1078.84033203125 1061.81005859375 C 1081.92041015625 1063.3299560546875 1084.5870361328125 1065.4832763671875 1086.84033203125 1068.27001953125 C 1089.100341796875 1071.050048828125 1090.8736572265625 1074.4466552734375 1092.160400390625 1078.4599609375 C 1093.447021484375 1082.473388671875 1094.09033203125 1087.086669921875 1094.09033203125 1092.300048828125 C 1094.09033203125 1097.52001953125 1093.447021484375 1102.1500244140625 1092.160400390625 1106.18994140625 C 1090.8736572265625 1110.2366943359375 1089.100341796875 1113.6500244140625 1086.84033203125 1116.4300537109375 C 1084.5870361328125 1119.2166748046875 1081.93701171875 1121.356689453125 1078.890380859375 1122.8499755859375 C 1075.8436279296875 1124.3433837890625 1072.503662109375 1125.2066650390625 1068.870361328125 1125.43994140625 L 1068.870361328125 1116.739990234375 C 1070.8636474609375 1116.5067138671875 1072.737060546875 1115.876708984375 1074.4903564453125 1114.8499755859375 C 1076.2503662109375 1113.8233642578125 1077.773681640625 1112.3299560546875 1079.060302734375 1110.3699951171875 C 1080.3536376953125 1108.4033203125 1081.38037109375 1105.93994140625 1082.140380859375 1102.97998046875 C 1082.900390625 1100.02001953125 1083.310302734375 1096.4599609375 1083.370361328125 1092.300048828125 C 1083.310302734375 1088.1400146484375 1082.900390625 1084.5833740234375 1082.140380859375 1081.6300048828125 C 1081.38037109375 1078.6700439453125 1080.34033203125 1076.2066650390625 1079.0203857421875 1074.239990234375 C 1077.7003173828125 1072.280029296875 1076.160400390625 1070.78662109375 1074.400390625 1069.760009765625 C 1072.64697265625 1068.7332763671875 1070.8037109375 1068.13330078125 1068.870361328125 1067.9599609375 L 1068.870361328125 1059.260009765625 ZM 1149.2684326171875 1060.219970703125 L 1159.988525390625 1060.219970703125 L 1159.988525390625 1125 L 1149.2684326171875 1125 L 1127.468505859375 1086.6800537109375 L 1127.468505859375 1066.4599609375 L 1149.2684326171875 1104.8699951171875 L 1149.2684326171875 1060.219970703125 M 1113.1484375 1125 L 1113.1484375 1060.219970703125 L 1123.8685302734375 1060.219970703125 L 1123.8685302734375 1125 L 1113.1484375 1125 ZM 1216.3963623046875 1060.219970703125 L 1227.116455078125 1060.219970703125 L 1227.116455078125 1125 L 1216.3963623046875 1125 L 1194.596435546875 1086.6800537109375 L 1194.596435546875 1066.4599609375 L 1216.3963623046875 1104.8699951171875 L 1216.3963623046875 1060.219970703125 M 1180.2763671875 1125 L 1180.2763671875 1060.219970703125 L 1190.9964599609375 1060.219970703125 L 1190.9964599609375 1125 L 1180.2763671875 1125 ZM 1247.664306640625 1060.219970703125 L 1258.38427734375 1060.219970703125 L 1258.38427734375 1125 L 1247.664306640625 1125 L 1247.664306640625 1060.219970703125 M 1285.454345703125 1095.8199462890625 L 1261.994384765625 1095.8199462890625 L 1261.994384765625 1088.6099853515625 L 1285.454345703125 1088.6099853515625 L 1285.454345703125 1095.8199462890625 M 1261.994384765625 1117 L 1288.184326171875 1117 L 1288.184326171875 1125 L 1261.994384765625 1125 L 1261.994384765625 1117 M 1288.184326171875 1060.219970703125 L 1288.184326171875 1068.219970703125 L 1261.994384765625 1068.219970703125 L 1261.994384765625 1060.219970703125 L 1288.184326171875 1060.219970703125 ZM 1343.3580322265625 1072.7099609375 C 1342.0113525390625 1071.183349609375 1340.57470703125 1070.0400390625 1339.0479736328125 1069.280029296875 C 1337.5279541015625 1068.5133056640625 1335.8880615234375 1068.0733642578125 1334.1280517578125 1067.9599609375 L 1334.1280517578125 1059.260009765625 C 1340.68798828125 1059.5533447265625 1346.1947021484375 1061.86669921875 1350.64794921875 1066.199951171875 L 1343.3580322265625 1072.7099609375 M 1334.1280517578125 1116.739990234375 C 1335.8880615234375 1116.56005859375 1337.544677734375 1116.0899658203125 1339.0980224609375 1115.3299560546875 C 1340.6446533203125 1114.5699462890625 1342.064697265625 1113.4566650390625 1343.3580322265625 1111.989990234375 L 1350.64794921875 1118.4100341796875 C 1348.42138671875 1120.57666015625 1345.931396484375 1122.2467041015625 1343.177978515625 1123.4200439453125 C 1340.4246826171875 1124.5933837890625 1337.407958984375 1125.2667236328125 1334.1280517578125 1125.43994140625 L 1334.1280517578125 1116.739990234375 M 1305.64794921875 1092.300048828125 C 1305.64794921875 1087.086669921875 1306.2779541015625 1082.489990234375 1307.5379638671875 1078.510009765625 C 1308.7979736328125 1074.5233154296875 1310.5413818359375 1071.1533203125 1312.76806640625 1068.4000244140625 C 1314.99462890625 1065.646728515625 1317.6180419921875 1063.5067138671875 1320.6380615234375 1061.97998046875 C 1323.657958984375 1060.4599609375 1326.9547119140625 1059.5533447265625 1330.5279541015625 1059.260009765625 L 1330.5279541015625 1068.050048828125 C 1328.5947265625 1068.3433837890625 1326.7779541015625 1069 1325.0780029296875 1070.02001953125 C 1323.3780517578125 1071.046630859375 1321.88134765625 1072.526611328125 1320.5880126953125 1074.4599609375 C 1319.3013916015625 1076.393310546875 1318.2913818359375 1078.8399658203125 1317.5579833984375 1081.800048828125 C 1316.82470703125 1084.760009765625 1316.431396484375 1088.260009765625 1316.3780517578125 1092.300048828125 C 1316.431396484375 1096.4066162109375 1316.82470703125 1099.92333984375 1317.5579833984375 1102.8499755859375 C 1318.2913818359375 1105.7833251953125 1319.3013916015625 1108.2432861328125 1320.5880126953125 1110.22998046875 C 1321.88134765625 1112.223388671875 1323.391357421875 1113.7467041015625 1325.1180419921875 1114.800048828125 C 1326.8447265625 1115.8599853515625 1328.64794921875 1116.5067138671875 1330.5279541015625 1116.739990234375 L 1330.5279541015625 1125.3499755859375 C 1326.9547119140625 1125.11669921875 1323.657958984375 1124.2366943359375 1320.6380615234375 1122.7099609375 C 1317.6180419921875 1121.18994140625 1314.99462890625 1119.0533447265625 1312.76806640625 1116.300048828125 C 1310.5413818359375 1113.546630859375 1308.7979736328125 1110.163330078125 1307.5379638671875 1106.1500244140625 C 1306.2779541015625 1102.13671875 1305.64794921875 1097.52001953125 1305.64794921875 1092.300048828125 ZM 1415.6708984375 1060.219970703125 L 1415.6708984375 1067.4300537109375 L 1396.330810546875 1067.4300537109375 L 1396.330810546875 1125 L 1385.7008056640625 1125 L 1385.7008056640625 1067.4300537109375 L 1366.36083984375 1067.4300537109375 L 1366.36083984375 1060.219970703125 L 1415.6708984375 1060.219970703125 ZM 1494.7313232421875 1101.530029296875 L 1501.5013427734375 1101.530029296875 L 1501.5013427734375 1109.8800048828125 L 1494.7313232421875 1109.8800048828125 L 1494.7313232421875 1125 L 1484.0113525390625 1125 L 1484.0113525390625 1060.219970703125 L 1494.7313232421875 1060.219970703125 L 1494.7313232421875 1101.530029296875 M 1455.9713134765625 1109.8800048828125 L 1455.9713134765625 1101.530029296875 L 1480.4013671875 1065.5 L 1480.4013671875 1078.0699462890625 L 1465.371337890625 1101.530029296875 L 1480.4013671875 1101.530029296875 L 1480.4013671875 1109.8800048828125 L 1455.9713134765625 1109.8800048828125 Z" transform="matrix(1, 0, 0, 1, -975.3629760742188, -738.0025634765625)" style="fill: rgb(231, 42, 121); white-space: pre; color: rgb(51, 51, 51); fill-opacity: 1; stroke: rgb(135, 40, 127); paint-order: fill; stroke-width: 0; -webkit-text-stroke: 0px rgb(135, 40, 127);"/></svg>